<svg id="Layer_1" data-name="Layer 1" xmlns="http://www.w3.org/2000/svg" viewBox="0 0 981.57 1058.28"><defs><style>.cls-1,.cls-2{stroke:#000;}.cls-1{stroke-miterlimit:10;}.cls-2,.cls-3{fill:#fff;}.cls-2{stroke-linecap:round;stroke-linejoin:round;stroke-width:15px;}</style></defs><title>logo</title><path class="cls-1" d="M1027.5,567c0,164.3-133.2,297.5-297.5,297.5S432.5,731.3,432.5,567c0-100.63,52-277.6,128.44-331.43C609.33,201.5,666.83,287.5,730.5,287.5c61.61,0,120.35-87.27,167.84-55.19C977.47,285.77,1027.5,464.31,1027.5,567Z" transform="translate(-239.71 -224.72)"/><ellipse class="cls-1" cx="492.29" cy="199.28" rx="349.5" ry="82.5"/><path d="M431.71,797.64,732,751l300.65,46.7c46,7.15,77.12,52.33,68.43,99.5L1030,1283H436L363.34,897.5C354.43,850.22,385.52,804.82,431.71,797.64Z" transform="translate(-239.71 -224.72)"/><path class="cls-2" d="M731.5,848V1260.5c0,3.41,5.46,10.32,6.48,7L875.37,823.75c.64-2.08-1.71-4-4.35-3.49l-136.7,24.92A3.12,3.12,0,0,0,731.5,848Z" transform="translate(-239.71 -224.72)"/><path class="cls-2" d="M872.87,819.2l338.17-125c4.94-1.82,2.72-7.74-2.68-7.13L934.84,717.9c-65.09,7.34-124.77,33.49-166,74.08a214.32,214.32,0,0,0-36.54,47c-1.61,2.85,1.55,5.93,5.38,5.23l134.26-24.73A5.79,5.79,0,0,0,872.87,819.2Z" transform="translate(-239.71 -224.72)"/><path class="cls-2" d="M729.5,847.79V1260.3c0,3.41-5.46,10.32-6.48,7L585.63,823.56c-.64-2.09,1.71-4,4.35-3.5L726.68,845A3.11,3.11,0,0,1,729.5,847.79Z" transform="translate(-239.71 -224.72)"/><path class="cls-2" d="M588.13,820,250,695c-4.94-1.83-2.72-7.74,2.68-7.13L526.16,718.7c65.09,7.34,124.77,33.49,166,74.08a214.32,214.32,0,0,1,36.54,47c1.61,2.85-1.55,5.94-5.38,5.23L589.06,820.26A5.82,5.82,0,0,1,588.13,820Z" transform="translate(-239.71 -224.72)"/><path class="cls-3" d="M952,494a7.35,7.35,0,0,0-9.12-5.79c-52.25,13.9-125.11,22.33-211,22.33S573.67,502,521.47,488.1a7.33,7.33,0,0,0-9.05,5.59L510.05,505a7.34,7.34,0,0,0,5.3,8.61q5.77,1.53,11.92,3l-1,17.09C523,587.77,562.06,634.4,613.46,637.8h0c51.4,3.41,95.69-37.7,98.92-91.82l0-.31a9.78,9.78,0,0,1,9.84-9.2q4.75,0,9.54,0t9.27,0a9.78,9.78,0,0,1,9.84,9.2h0c3.23,54.12,47.52,95.22,98.92,91.82h0c51.4-3.41,90.45-50,87.21-104.15l-1-16.71q6.57-1.54,12.7-3.19A7.34,7.34,0,0,0,954,505Z" transform="translate(-239.71 -224.72)"/></svg>